<svg xmlns="http://www.w3.org/2000/svg" xmlns:xlink="http://www.w3.org/1999/xlink" width="40" zoomAndPan="magnify" viewBox="0 0 30 30.000001" height="40" preserveAspectRatio="xMidYMid meet" version="1.0"><defs><clipPath id="437c666df1"><path d="M 2.804688 2.324219 L 27.484375 2.324219 L 27.484375 27 L 2.804688 27 Z M 2.804688 2.324219 " clip-rule="nonzero"/></clipPath></defs><g clip-path="url(#437c666df1)"><path fill="#000000" d="M 24.125 2.371094 L 5.863281 2.371094 C 4.1875 2.371094 2.804688 3.746094 2.804688 5.417969 L 2.804688 23.59375 C 2.804688 25.265625 4.1875 26.65625 5.863281 26.65625 L 14.949219 26.65625 L 14.949219 18.277344 L 11.949219 18.277344 L 11.949219 14.5625 L 14.949219 14.5625 L 14.949219 11.476562 C 14.949219 8.96875 17.039062 6.988281 19.558594 6.988281 L 22.664062 6.988281 L 22.664062 10.75 L 21.082031 10.75 C 20.242188 10.75 19.570312 10.640625 19.570312 11.476562 L 19.570312 14.5625 L 23.363281 14.5625 L 21.84375 18.277344 L 19.570312 18.277344 L 19.570312 26.65625 L 24.125 26.65625 C 25.804688 26.65625 27.1875 25.265625 27.1875 23.59375 L 27.1875 5.417969 C 27.1875 3.746094 25.804688 2.371094 24.125 2.371094 Z M 24.125 2.371094 " fill-opacity="1" fill-rule="nonzero"/></g></svg>