<svg xmlns="http://www.w3.org/2000/svg" xmlns:xlink="http://www.w3.org/1999/xlink" width="40" zoomAndPan="magnify" viewBox="0 0 30 30.000001" height="40" preserveAspectRatio="xMidYMid meet" version="1.0"><defs><clipPath id="a60ce1a992"><path d="M 0.484375 0 L 29.515625 0 L 29.515625 29.03125 L 0.484375 29.03125 Z M 0.484375 0 " clip-rule="nonzero"/></clipPath></defs><g clip-path="url(#a60ce1a992)"><path fill="#000000" d="M 8.179688 29.003906 L 21.878906 29.003906 C 22.386719 28.996094 22.886719 28.9375 23.382812 28.832031 C 23.878906 28.726562 24.359375 28.574219 24.824219 28.375 C 25.289062 28.175781 25.730469 27.933594 26.148438 27.648438 C 26.566406 27.363281 26.953125 27.039062 27.304688 26.675781 C 27.660156 26.316406 27.976562 25.921875 28.253906 25.5 C 28.53125 25.074219 28.761719 24.628906 28.953125 24.160156 C 29.140625 23.691406 29.285156 23.207031 29.378906 22.710938 C 29.472656 22.210938 29.519531 21.710938 29.515625 21.203125 L 29.515625 7.828125 C 29.519531 7.320312 29.472656 6.820312 29.378906 6.324219 C 29.285156 5.824219 29.140625 5.34375 28.953125 4.875 C 28.761719 4.402344 28.53125 3.957031 28.253906 3.535156 C 27.976562 3.109375 27.660156 2.71875 27.304688 2.355469 C 26.953125 1.992188 26.566406 1.671875 26.148438 1.382812 C 25.730469 1.097656 25.289062 0.855469 24.824219 0.65625 C 24.359375 0.457031 23.878906 0.304688 23.382812 0.199219 C 22.886719 0.09375 22.386719 0.0390625 21.878906 0.03125 L 8.179688 0.03125 C 7.671875 0.0390625 7.171875 0.09375 6.675781 0.199219 C 6.183594 0.304688 5.703125 0.457031 5.238281 0.65625 C 4.773438 0.855469 4.332031 1.097656 3.914062 1.382812 C 3.496094 1.671875 3.109375 1.992188 2.753906 2.355469 C 2.402344 2.71875 2.085938 3.109375 1.808594 3.535156 C 1.53125 3.957031 1.296875 4.402344 1.109375 4.875 C 0.917969 5.34375 0.777344 5.824219 0.679688 6.324219 C 0.585938 6.820312 0.539062 7.320312 0.542969 7.828125 L 0.542969 21.203125 C 0.539062 21.710938 0.585938 22.210938 0.679688 22.710938 C 0.777344 23.207031 0.917969 23.691406 1.109375 24.160156 C 1.296875 24.628906 1.53125 25.074219 1.808594 25.5 C 2.085938 25.921875 2.402344 26.316406 2.753906 26.675781 C 3.109375 27.039062 3.496094 27.363281 3.914062 27.648438 C 4.332031 27.933594 4.773438 28.175781 5.238281 28.375 C 5.703125 28.574219 6.183594 28.726562 6.675781 28.832031 C 7.171875 28.9375 7.671875 28.996094 8.179688 29.003906 Z M 23.480469 4.859375 C 23.722656 4.855469 23.953125 4.894531 24.179688 4.984375 C 24.402344 5.070312 24.601562 5.199219 24.773438 5.367188 C 24.949219 5.535156 25.082031 5.730469 25.179688 5.949219 C 25.273438 6.171875 25.324219 6.402344 25.328125 6.644531 C 25.332031 6.886719 25.289062 7.117188 25.199219 7.34375 C 25.109375 7.566406 24.980469 7.765625 24.808594 7.9375 C 24.640625 8.109375 24.445312 8.242188 24.222656 8.335938 C 24 8.429688 23.769531 8.476562 23.527344 8.480469 C 23.289062 8.480469 23.054688 8.4375 22.832031 8.34375 C 22.609375 8.253906 22.410156 8.125 22.242188 7.953125 C 22.070312 7.785156 21.9375 7.585938 21.84375 7.367188 C 21.753906 7.144531 21.707031 6.910156 21.707031 6.667969 C 21.707031 6.433594 21.75 6.203125 21.839844 5.984375 C 21.929688 5.765625 22.058594 5.570312 22.222656 5.402344 C 22.390625 5.234375 22.582031 5.101562 22.796875 5.007812 C 23.015625 4.914062 23.242188 4.863281 23.480469 4.859375 Z M 15.03125 7.273438 C 15.507812 7.261719 15.980469 7.300781 16.453125 7.382812 C 16.921875 7.46875 17.378906 7.597656 17.824219 7.769531 C 18.269531 7.945312 18.691406 8.160156 19.09375 8.417969 C 19.496094 8.679688 19.871094 8.972656 20.210938 9.304688 C 20.554688 9.636719 20.863281 10 21.136719 10.390625 C 21.40625 10.785156 21.640625 11.199219 21.828125 11.636719 C 22.019531 12.078125 22.164062 12.53125 22.261719 12.996094 C 22.363281 13.464844 22.417969 13.9375 22.421875 14.414062 C 22.429688 14.890625 22.390625 15.363281 22.304688 15.835938 C 22.214844 16.304688 22.082031 16.761719 21.90625 17.203125 C 21.730469 17.648438 21.507812 18.070312 21.25 18.46875 C 20.988281 18.871094 20.691406 19.242188 20.355469 19.582031 C 20.023438 19.921875 19.65625 20.226562 19.261719 20.496094 C 18.867188 20.765625 18.453125 20.996094 18.011719 21.179688 C 17.570312 21.367188 17.117188 21.511719 16.652344 21.605469 C 16.183594 21.703125 15.710938 21.753906 15.234375 21.757812 C 14.753906 21.761719 14.28125 21.71875 13.8125 21.628906 C 13.34375 21.535156 12.886719 21.402344 12.445312 21.222656 C 12.003906 21.039062 11.582031 20.820312 11.183594 20.554688 C 10.785156 20.292969 10.417969 19.992188 10.078125 19.65625 C 9.738281 19.316406 9.4375 18.953125 9.171875 18.554688 C 8.902344 18.160156 8.679688 17.738281 8.496094 17.300781 C 8.3125 16.859375 8.171875 16.402344 8.078125 15.933594 C 7.984375 15.46875 7.9375 14.992188 7.9375 14.515625 C 7.933594 14.046875 7.972656 13.578125 8.0625 13.117188 C 8.148438 12.652344 8.28125 12.203125 8.457031 11.769531 C 8.632812 11.332031 8.847656 10.914062 9.105469 10.523438 C 9.363281 10.128906 9.65625 9.761719 9.984375 9.425781 C 10.3125 9.089844 10.671875 8.789062 11.0625 8.523438 C 11.449219 8.257812 11.859375 8.03125 12.292969 7.847656 C 12.726562 7.664062 13.171875 7.523438 13.632812 7.425781 C 14.09375 7.328125 14.558594 7.277344 15.03125 7.273438 Z M 15.03125 7.273438 " fill-opacity="1" fill-rule="nonzero"/></g></svg>