<svg xmlns="http://www.w3.org/2000/svg" xmlns:xlink="http://www.w3.org/1999/xlink" width="40" zoomAndPan="magnify" viewBox="0 0 30 30.000001" height="40" preserveAspectRatio="xMidYMid meet" version="1.0"><defs><clipPath id="ac63c6f949"><path d="M 2.804688 2.324219 L 27.484375 2.324219 L 27.484375 27 L 2.804688 27 Z M 2.804688 2.324219 " clip-rule="nonzero"/></clipPath></defs><g clip-path="url(#ac63c6f949)"><path fill="#000000" d="M 9.269531 26.679688 L 20.777344 26.679688 C 21.203125 26.675781 21.621094 26.625 22.039062 26.539062 C 22.453125 26.449219 22.855469 26.320312 23.246094 26.15625 C 23.640625 25.988281 24.007812 25.78125 24.359375 25.542969 C 24.710938 25.300781 25.035156 25.03125 25.332031 24.726562 C 25.628906 24.421875 25.894531 24.09375 26.128906 23.738281 C 26.359375 23.382812 26.558594 23.007812 26.714844 22.613281 C 26.875 22.21875 26.996094 21.8125 27.074219 21.394531 C 27.152344 20.976562 27.191406 20.554688 27.1875 20.128906 L 27.1875 8.898438 C 27.191406 8.472656 27.152344 8.050781 27.074219 7.632812 C 26.996094 7.214844 26.875 6.808594 26.714844 6.414062 C 26.558594 6.019531 26.359375 5.644531 26.128906 5.289062 C 25.894531 4.933594 25.628906 4.605469 25.332031 4.300781 C 25.035156 3.996094 24.710938 3.726562 24.359375 3.484375 C 24.007812 3.246094 23.640625 3.039062 23.246094 2.875 C 22.855469 2.707031 22.453125 2.578125 22.039062 2.488281 C 21.621094 2.402344 21.203125 2.355469 20.777344 2.347656 L 9.269531 2.347656 C 8.84375 2.355469 8.425781 2.402344 8.007812 2.488281 C 7.59375 2.578125 7.1875 2.707031 6.796875 2.875 C 6.40625 3.039062 6.035156 3.246094 5.6875 3.484375 C 5.335938 3.726562 5.011719 3.996094 4.714844 4.300781 C 4.417969 4.605469 4.152344 4.933594 3.917969 5.289062 C 3.683594 5.644531 3.488281 6.019531 3.332031 6.414062 C 3.171875 6.808594 3.050781 7.214844 2.972656 7.632812 C 2.890625 8.050781 2.855469 8.472656 2.855469 8.898438 L 2.855469 20.128906 C 2.855469 20.554688 2.890625 20.976562 2.972656 21.394531 C 3.050781 21.8125 3.171875 22.21875 3.332031 22.613281 C 3.488281 23.007812 3.683594 23.382812 3.917969 23.738281 C 4.152344 24.09375 4.417969 24.421875 4.714844 24.726562 C 5.011719 25.03125 5.335938 25.300781 5.6875 25.542969 C 6.035156 25.78125 6.40625 25.988281 6.796875 26.15625 C 7.1875 26.320312 7.59375 26.449219 8.007812 26.539062 C 8.425781 26.625 8.84375 26.675781 9.269531 26.679688 Z M 22.121094 6.402344 C 22.324219 6.398438 22.519531 6.433594 22.707031 6.507812 C 22.894531 6.582031 23.0625 6.691406 23.207031 6.832031 C 23.351562 6.972656 23.464844 7.132812 23.546875 7.320312 C 23.625 7.507812 23.667969 7.699219 23.671875 7.902344 C 23.671875 8.105469 23.636719 8.300781 23.5625 8.488281 C 23.488281 8.675781 23.378906 8.84375 23.238281 8.988281 C 23.09375 9.132812 22.929688 9.246094 22.742188 9.324219 C 22.558594 9.402344 22.363281 9.441406 22.160156 9.445312 C 21.957031 9.445312 21.761719 9.40625 21.574219 9.332031 C 21.386719 9.253906 21.222656 9.144531 21.078125 9.003906 C 20.933594 8.859375 20.824219 8.695312 20.746094 8.507812 C 20.667969 8.320312 20.628906 8.125 20.628906 7.925781 C 20.628906 7.726562 20.667969 7.535156 20.742188 7.347656 C 20.816406 7.164062 20.925781 7 21.0625 6.859375 C 21.203125 6.71875 21.363281 6.605469 21.546875 6.527344 C 21.730469 6.449219 21.921875 6.40625 22.121094 6.402344 Z M 15.023438 8.429688 C 15.425781 8.421875 15.820312 8.453125 16.21875 8.523438 C 16.613281 8.59375 16.996094 8.703125 17.371094 8.847656 C 17.742188 8.996094 18.097656 9.175781 18.4375 9.394531 C 18.773438 9.609375 19.085938 9.859375 19.375 10.136719 C 19.664062 10.414062 19.921875 10.71875 20.152344 11.050781 C 20.378906 11.378906 20.574219 11.730469 20.734375 12.097656 C 20.890625 12.464844 21.011719 12.84375 21.097656 13.238281 C 21.183594 13.628906 21.226562 14.027344 21.230469 14.425781 C 21.238281 14.828125 21.203125 15.226562 21.132812 15.621094 C 21.058594 16.015625 20.945312 16.398438 20.796875 16.769531 C 20.648438 17.144531 20.464844 17.5 20.246094 17.835938 C 20.027344 18.171875 19.777344 18.480469 19.496094 18.769531 C 19.214844 19.054688 18.910156 19.3125 18.578125 19.539062 C 18.246094 19.761719 17.894531 19.953125 17.527344 20.113281 C 17.15625 20.269531 16.777344 20.386719 16.382812 20.46875 C 15.992188 20.550781 15.59375 20.59375 15.191406 20.59375 C 14.792969 20.597656 14.394531 20.5625 14 20.484375 C 13.605469 20.410156 13.222656 20.296875 12.851562 20.144531 C 12.480469 19.992188 12.128906 19.808594 11.792969 19.585938 C 11.457031 19.363281 11.148438 19.113281 10.863281 18.828125 C 10.578125 18.546875 10.324219 18.238281 10.101562 17.90625 C 9.878906 17.574219 9.6875 17.222656 9.535156 16.851562 C 9.378906 16.480469 9.265625 16.097656 9.183594 15.707031 C 9.105469 15.3125 9.066406 14.914062 9.066406 14.515625 C 9.0625 14.117188 9.097656 13.726562 9.171875 13.339844 C 9.242188 12.949219 9.355469 12.574219 9.5 12.207031 C 9.648438 11.839844 9.832031 11.492188 10.046875 11.160156 C 10.261719 10.828125 10.507812 10.523438 10.785156 10.238281 C 11.0625 9.957031 11.363281 9.703125 11.691406 9.480469 C 12.015625 9.257812 12.359375 9.070312 12.726562 8.914062 C 13.089844 8.757812 13.464844 8.640625 13.851562 8.558594 C 14.238281 8.476562 14.628906 8.433594 15.023438 8.429688 Z M 15.023438 8.429688 " fill-opacity="1" fill-rule="nonzero"/></g></svg>