<svg xmlns="http://www.w3.org/2000/svg" xmlns:xlink="http://www.w3.org/1999/xlink" width="40" zoomAndPan="magnify" viewBox="0 0 30 30.000001" height="40" preserveAspectRatio="xMidYMid meet" version="1.0"><defs><clipPath id="cb87fc27ac"><path d="M 4 2.902344 L 26 2.902344 L 26 26.128906 L 4 26.128906 Z M 4 2.902344 " clip-rule="nonzero"/></clipPath></defs><g clip-path="url(#cb87fc27ac)"><path fill="#000000" d="M 16.773438 19.917969 C 16.703125 21.710938 15.195312 23.148438 13.34375 23.148438 C 12.921875 23.148438 12.515625 23.074219 12.140625 22.933594 C 12.515625 23.070312 12.917969 23.148438 13.34375 23.148438 C 15.195312 23.148438 16.703125 21.710938 16.773438 19.917969 L 16.777344 3.914062 L 19.769531 3.914062 C 20.058594 5.433594 20.984375 6.738281 22.261719 7.554688 C 22.261719 7.554688 22.261719 7.554688 22.265625 7.558594 C 23.15625 8.125 24.21875 8.457031 25.359375 8.457031 L 25.359375 12.449219 C 23.242188 12.449219 21.277344 11.785156 19.675781 10.664062 L 19.675781 18.777344 C 19.675781 22.832031 16.304688 26.125 12.15625 26.125 C 10.550781 26.125 9.066406 25.632812 7.84375 24.792969 C 5.90625 23.460938 4.632812 21.261719 4.632812 18.777344 C 4.632812 14.722656 8.007812 11.425781 12.15625 11.425781 C 12.5 11.425781 12.835938 11.453125 13.167969 11.5 L 13.167969 12.445312 C 9.382812 12.53125 6.285156 15.359375 5.871094 18.972656 C 6.285156 15.359375 9.386719 12.53125 13.167969 12.445312 L 13.167969 15.574219 C 12.847656 15.476562 12.507812 15.417969 12.15625 15.417969 C 10.261719 15.417969 8.71875 16.925781 8.71875 18.777344 C 8.71875 20.066406 9.46875 21.183594 10.5625 21.746094 C 11.039062 21.992188 11.578125 22.132812 12.15625 22.132812 C 14.007812 22.132812 15.511719 20.695312 15.582031 18.902344 L 15.589844 2.898438 L 19.675781 2.898438 C 19.675781 3.246094 19.710938 3.582031 19.773438 3.910156 L 16.777344 3.910156 Z M 16.773438 19.917969 " fill-opacity="1" fill-rule="nonzero"/></g></svg>