<svg xmlns="http://www.w3.org/2000/svg" xmlns:xlink="http://www.w3.org/1999/xlink" width="40" zoomAndPan="magnify" viewBox="0 0 30 30.000001" height="40" preserveAspectRatio="xMidYMid meet" version="1.0"><defs><clipPath id="40563a5171"><path d="M 0.488281 2.777344 L 29.511719 2.777344 L 29.511719 26.003906 L 0.488281 26.003906 Z M 0.488281 2.777344 " clip-rule="nonzero"/></clipPath></defs><g clip-path="url(#40563a5171)"><path fill="#000000" d="M 29.511719 5.550781 C 28.433594 6.023438 27.28125 6.335938 26.082031 6.488281 C 27.316406 5.753906 28.257812 4.601562 28.703125 3.214844 C 27.550781 3.898438 26.28125 4.378906 24.929688 4.648438 C 23.835938 3.492188 22.28125 2.773438 20.582031 2.773438 C 17.289062 2.773438 14.636719 5.4375 14.636719 8.699219 C 14.636719 9.167969 14.675781 9.621094 14.773438 10.050781 C 9.828125 9.808594 5.449219 7.449219 2.507812 3.855469 C 1.996094 4.738281 1.695312 5.753906 1.695312 6.847656 C 1.695312 8.898438 2.753906 10.71875 4.335938 11.769531 C 3.382812 11.75 2.441406 11.476562 1.648438 11.039062 L 1.648438 11.105469 C 1.648438 13.984375 3.710938 16.375 6.414062 16.925781 C 5.929688 17.058594 5.402344 17.121094 4.855469 17.121094 C 4.476562 17.121094 4.089844 17.097656 3.730469 17.019531 C 4.5 19.363281 6.6875 21.089844 9.289062 21.144531 C 7.265625 22.722656 4.695312 23.671875 1.910156 23.671875 C 1.425781 23.671875 0.957031 23.648438 0.488281 23.589844 C 3.125 25.28125 6.246094 26.25 9.617188 26.25 C 20.566406 26.25 26.550781 17.21875 26.550781 9.394531 C 26.550781 9.132812 26.542969 8.878906 26.53125 8.628906 C 27.710938 7.792969 28.703125 6.75 29.511719 5.550781 Z M 29.511719 5.550781 " fill-opacity="1" fill-rule="nonzero"/></g></svg>